<svg width="33" height="25" viewBox="0 0 33 25" fill="none" xmlns="http://www.w3.org/2000/svg">
<path d="M30.4589 0H2.54114C1.14177 0 0 1.15363 0 2.56753V22.4325C0 23.8464 1.14177 25 2.54114 25H30.4589C31.8582 25 33 23.8464 33 22.4325V2.56753C33 1.15363 31.8582 0 30.4589 0ZM30.0899 1.89927L16.6741 13.4918L3.25823 1.89927H30.0899ZM31.1203 22.4325C31.1203 22.7983 30.8209 23.1007 30.4589 23.1007H2.54114C2.17911 23.1007 1.87975 22.7983 1.87975 22.4325V3.20765L16.0614 15.4615C16.0684 15.4685 16.0823 15.4755 16.0892 15.4826C16.0962 15.4896 16.1101 15.4966 16.1171 15.5037C16.138 15.5177 16.1519 15.5318 16.1728 15.5388C16.1797 15.5459 16.1867 15.5459 16.1937 15.5529C16.2215 15.567 16.2494 15.581 16.2772 15.5951C16.2842 15.5951 16.2911 15.6021 16.2981 15.6021C16.319 15.6092 16.3399 15.6232 16.3677 15.6303C16.3747 15.6303 16.3886 15.6373 16.3956 15.6373C16.4165 15.6443 16.4373 15.6514 16.4582 15.6514C16.4652 15.6514 16.4791 15.6584 16.4861 15.6584C16.507 15.6654 16.5348 15.6654 16.5557 15.6725C16.5627 15.6725 16.5696 15.6725 16.5766 15.6725C16.6044 15.6725 16.6392 15.6795 16.6671 15.6795C16.6949 15.6795 16.7297 15.6795 16.7576 15.6725C16.7646 15.6725 16.7715 15.6725 16.7785 15.6725C16.7994 15.6725 16.8272 15.6654 16.8481 15.6584C16.8551 15.6584 16.869 15.6514 16.8759 15.6514C16.8968 15.6443 16.9177 15.6373 16.9386 15.6373C16.9456 15.6373 16.9595 15.6303 16.9665 15.6303C16.9873 15.6232 17.0082 15.6162 17.0361 15.6021C17.043 15.6021 17.05 15.5951 17.057 15.5951C17.0848 15.581 17.1127 15.567 17.1405 15.5529C17.1475 15.5459 17.1544 15.5459 17.1614 15.5388C17.1823 15.5248 17.1962 15.5177 17.2171 15.5037C17.2241 15.4966 17.238 15.4896 17.2449 15.4826C17.2519 15.4755 17.2658 15.4685 17.2728 15.4615L31.1203 3.51013V22.4325Z" fill="black"/>
</svg>
