<svg width="23" height="28" viewBox="0 0 23 28" fill="none" xmlns="http://www.w3.org/2000/svg">
<path d="M21.5204 19.9341C21.4579 19.7472 21.3402 19.594 21.1972 19.472C21.2087 19.1745 21.216 18.8753 21.216 18.5732C21.216 11.9233 18.4617 6.29154 14.6567 4.36013C14.7134 4.13037 14.7467 3.89137 14.7467 3.64402C14.7467 1.99502 13.4099 0.658203 11.7609 0.658203C10.1119 0.658203 8.77507 1.99502 8.77507 3.64402C8.77507 3.89137 8.80842 4.13037 8.8651 4.36013C5.06005 6.29154 2.30576 11.9233 2.30576 18.5732C2.30576 18.8753 2.31308 19.1745 2.32461 19.472C2.1816 19.594 2.06383 19.7472 2.00134 19.9341L0.586646 24.1655C0.357561 24.8507 0.867583 25.5588 1.59024 25.5588H8.48657C8.90695 26.9702 10.2129 28 11.7609 28C13.3089 28 14.6148 26.9702 15.0352 25.5588H21.9315C22.6542 25.5588 23.1642 24.8507 22.9351 24.1655L21.5204 19.9341ZM9.31561 5.24762L10.0208 4.88964L9.83144 4.12177C9.79033 3.95513 9.77031 3.79885 9.77031 3.64402C9.77031 2.54645 10.6633 1.65349 11.7609 1.65349C12.8585 1.65349 13.7515 2.54645 13.7515 3.64402C13.7515 3.79885 13.7315 3.95513 13.6903 4.12177L13.501 4.88964L14.2062 5.24762C17.7475 7.04515 20.2207 12.5248 20.2207 18.5732C20.2207 18.7774 20.2178 18.9843 20.2119 19.1928H3.30989C3.30403 18.9843 3.30105 18.7774 3.30105 18.5732C3.30105 12.5248 5.77431 7.04515 9.31561 5.24762ZM11.7609 27.0235C10.7617 27.0235 9.90092 26.4203 9.5235 25.5588H13.9983C13.6209 26.4203 12.76 27.0235 11.7609 27.0235ZM21.9979 24.5483C21.9735 24.5823 21.9441 24.5823 21.9315 24.5823H15.1786H8.34317H1.59024C1.57769 24.5823 1.5483 24.5823 1.52383 24.5483C1.49957 24.5146 1.5088 24.487 1.51275 24.4752L2.92744 20.2438C2.93863 20.2105 2.96973 20.188 3.00498 20.188H20.5168C20.5521 20.188 20.5832 20.2105 20.5943 20.2437L22.009 24.4752C22.013 24.487 22.0222 24.5146 21.9979 24.5483Z" fill="black"/>
</svg>
